<svg id="Layer_1" data-name="Layer 1" xmlns="http://www.w3.org/2000/svg" viewBox="0 0 506 144"><defs><style>.cls-1{fill:#102e19;}.cls-2{fill:#7a941a;}.cls-3{fill:#9cc212;}</style></defs><title>12</title><rect class="cls-1" x="0.14" width="505.86" height="143.96"/><path class="cls-2" d="M203.84,78.82c5.51.08,5.49.29,11,.36s5.52-.07,11,0,5.51-.19,11-.11,5.51-.17,11-.09,5.63.32,11.13.4,5.53-.18,11-.1c1.16,0,2.53.41,2.5,1s-1.39,1.1-2.48,1.12c-5.5.08-5.48.34-11,.42s-5.5.1-11,.18-5.52-.18-11-.09l-11,.14c-5.5.09-5.5.21-11,.29s-5.5.35-11,.43-4.76-.82-10.27-.74c-2.37,0-4.89-.82-4.81-1.72C189.15,78.14,198.34,78.74,203.84,78.82Z"/><path class="cls-2" d="M311.3,79.86c0-.61-2.1-1.3-3.32-1.3-7.33,0-7.32-.3-14.67-.36s-15.61.52-16.76,1.67c-.55.51.58,1.77,2.09,1.76,7.34,0,7.32-.38,14.66-.44s7.33-.44,14.67-.51C309.1,80.64,311.27,80.45,311.3,79.86Z"/><path class="cls-2" d="M352.19,78.53c-6,0-6-.29-12-.36H327.46c-5.87,0-10.31.34-10.4.34-1.91,0-3.15.6-3.12,1.3a1.68,1.68,0,0,0,1.62,1.75h12.52c6,0,6-.38,12-.45s6-.44,12-.5c1,0,2.71-.21,2.72-.8S353.19,78.55,352.19,78.53Z"/><path class="cls-2" d="M302.29,78.53c0,1.5-12.07,1.15-12-.36"/><path class="cls-2" d="M358.87,78.47c-1.3.12-1.82.85-1.78,1.4s1.19,1.42,2.11,1.41c5-.12,5-.29,10.05-.4a1.22,1.22,0,0,0,1.16-1c0-.44-.57-1-1.7-1-5,.22-2-.26-7-.36A23.64,23.64,0,0,0,358.87,78.47Z"/><path class="cls-2" d="M308.62,104c-1.7,0-3.58,1.07-3.51,1.63s2.16,1.42,3.9,1.39c9.25-.1,9.22-.29,18.47-.4,1.3,0,2.08-.6,2.12-1s-.86-.45-2.19-.47c-9.24-.11-8-1-17.26-1.11Z"/><path class="cls-2" d="M327.07,109.8c0-.56-3.65-1.21-5.68-1.21-4.79,0-4.79-.23-9.58-.23-2,0-4.57.88-4.57,1.44s2.6,1,4.57,1c4.79,0,4.79-.3,9.58-.3C323.41,110.46,327.07,110.36,327.07,109.8Z"/><path class="cls-2" d="M287.61,118.66c0-.38-1.11-.82-1.78-.83-3.9,0-3.9-.19-7.8-.23s-1.89,0-5.78,0c0,0-3.9,0-3.72,1.07a1.9,1.9,0,0,0,1.73,1.08c3.91,0,3.91-.23,7.81-.27s3.9-.29,7.8-.33C286.46,119.14,287.61,119,287.61,118.66Z"/><path class="cls-2" d="M277.12,100.42c0-.59-1.7-1.3-2.71-1.3-6,0-2.6-.3-8.58-.36s-4.88.57-10.89.52c0,0-6.17-.5-6.94,1-.35.66.45,1.64,2.6,1.63,6,0,5.81-.09,11.82-.16s6-.44,12-.51C275.38,101.2,277.11,101,277.12,100.42Z"/><path class="cls-2" d="M334.38,100.42c0-.59-1.71-1.3-2.71-1.3-6,0-10.16-.28-16.17-.35s-10.82.3-10.85.3c-2.1-.13-2.91.63-2.9,1.3s2.11,1.3,3.34,1.3c6,0,4.39.15,10.41.08s10.16-.44,16.17-.51C332.63,101.2,334.36,101,334.38,100.42Z"/><path class="cls-2" d="M216.37,98.08c-1.58,0-3.33,1.3-3.28,2s2,1.72,3.6,1.69c8.61-.13,8.6-.35,17.21-.48a2,2,0,0,0,2-1.23c0-.52-.81-.55-2-.56-8.61-.14-7.46-1.21-16.08-1.3Z"/><path class="cls-2" d="M274.54,114.6c0-.56-1.69-1.21-2.6-1.21-3.77,0-3.77-.23-7.55-.23-.93,0-2.11.88-2.11,1.44s1.18,1,2.11,1c3.78,0,3.78-.3,7.55-.3C272.85,115.24,274.54,115.16,274.54,114.6Z"/><path class="cls-2" d="M288.75,114.6c0-.56-1.68-1.21-2.61-1.21-3.78,0-3.78-.23-7.55-.23-.92,0-2.11.88-2.11,1.44s1.19,1,2.11,1c3.77,0,3.77-.3,7.55-.3C287.07,115.24,288.75,115.16,288.75,114.6Z"/><path class="cls-2" d="M322.11,113.4c0-.56-1.3-1.22-1.92-1.22-2.75,0-2.75-.22-5.5-.22a1.85,1.85,0,0,0-1.53,1.44c0,.56.86.95,1.53.95,2.75,0,2.75-.28,5.5-.28C320.9,114.07,322.11,113.94,322.11,113.4Z"/><path class="cls-2" d="M282.62,122.57c0-.56-1.24-1.21-1.91-1.21-2.76,0-2.76-.23-5.5-.23a1.88,1.88,0,0,0-1.54,1.44c0,.56.86,1,1.54,1,2.74,0,2.74-.28,5.5-.28C281.38,123.25,282.62,123.13,282.62,122.57Z"/><path class="cls-2" d="M235.08,105.26c0-.56-3.12-1.21-4.83-1.21-4.1,0-4.1-.23-8.18-.23-1.73,0-3.91.88-3.91,1.44s2.19.95,3.91.95c4.08,0,4.08-.28,8.18-.28C232,105.93,235.08,105.82,235.08,105.26Z"/><path class="cls-2" d="M298.32,100.7c0-.56-3.12-1.23-4.84-1.23-4.1,0-4.1-.22-8.18-.22-1.73,0-3.9.89-3.9,1.45s2.18,1,3.9,1c4.08,0,4.08-.29,8.18-.29C295.2,101.36,298.32,101.24,298.32,100.7Z"/><path class="cls-2" d="M260.71,74.46c-.2.51,1.37,1,3,1,5.29.22,4.23.26,10.61.38,1.6,0,3.31.39,5.13.41s3.81-.45,5.8-.45c4,0,8.24.56,12.5.56,2.13,0,4.25-.47,6.34-.47s4.18.1,6.17.08c4,0,7.8.09,11,0,6.38-.16,5.35-.25,10.63-.51a1.05,1.05,0,0,0,1.19-.8c.14-.31-.11-.57-1.3-.63-5.3-.26-4.27,0-10.65-.18-3.19-.08-6.82-.6-10.81-.64-2,0-4.07.14-6.17.14s-4.21-.56-6.34-.54c-4.26,0-8.5.66-12.49.7-2,0-3.9-.13-5.76-.11s-3.64-.44-5.2-.41c-6.39.11-5.21.66-10.5.88C262.46,73.94,260.87,74,260.71,74.46Z"/><path class="cls-2" d="M207.43,93.67c-.18.81,1.3,1.5,2.7,1.6,4.83.35,3.9-.13,9.67.6a69,69,0,0,0,10,0c3.65,0,7.52.89,11.4.89,1.94,0,3.9-.73,5.79-.75s3.79.16,5.61.12c3.65-.06,7.09.14,10,0,5.82-.25,3.19-.23,8-.65.86-.08,2.82-.73,3-1.3s-1-1-2.16-1.14c-4.82-.42-3.14,0-9-.21-2.91-.14-6.21-1-9.86-1-1.82,0-3.72.35-5.61.23a132.93,132.93,0,0,0-17.17.25c-1.82,0-3.59-.19-5.2-.17s-3.32-.69-4.78-.65c-5.81.18-4.73,1.06-9.56,1.39C209,92.84,207.65,93,207.43,93.67Z"/><path class="cls-2" d="M372.53,75.05c.22-.39-.74-.77-1.65-.87a26.38,26.38,0,0,0-3.07-.31c-1.86-.11-17.46-.54-19.94-.51-1.23,0-2.38.35-3.54.35a29.86,29.86,0,0,0-6.32.64,2.06,2.06,0,0,0-1.17.28c-.14.19.17,1,.89,1.07,1.52.19,1.41,0,3.27.13.93,0,2.14-.29,3.29-.26s2.37.1,3.62.12c2.47,0,21.52.09,23-.08A2.91,2.91,0,0,0,372.53,75.05Z"/><path class="cls-2" d="M276.49,94c-.14.85,1.07,1.54,2.32,1.6a40.18,40.18,0,0,0,4.38.24,50.18,50.18,0,0,0,9.64-.54c1.73-.26,3.59.52,5.2.38s3.08-.9,4.4-1c2.6-.3,2.26,0,4.43-.4.42-.08,1.3-.35,1.45-.65s-.82-1.14-1.46-1.2c-2.17-.26-1.87.3-4.51.16-1.3-.08-2.83-.2-4.48-.24s-3.39.22-5.2.22-3.5-.58-5.2-.53-3.17.4-4.49.48c-2.6.14-2.27-.17-4.46.08C277.67,92.65,276.59,93.27,276.49,94Z"/><path class="cls-2" d="M254.87,105.91c-.19.76,1.3,1.3,2.81,1.43,2.6.11,2.1.2,5.3.2,1.6,0,3.47.39,5.48.35s4.09-.74,6.21-.82,4.37.45,6.36.32,3.75-.78,5.35-.92c3.19-.25,2.76,0,5.38-.35.51-.06,1.64-.31,1.76-.59s-1-1-1.77-1c-2.6-.23-2.28.26-5.48.14-1.59-.07-3.43-.18-5.43-.2s-4.12.19-6.26.19-4.24-.52-6.23-.47-3.83.35-5.43.42c-3.19.13-2.84-.55-5.48-.33A3.2,3.2,0,0,0,254.87,105.91Z"/><path class="cls-2" d="M314.3,91.83c-3.16.28-3.67.82-3.64,1.91s1.69,1.72,3,1.65c3-.16,7.92-.58,12.73-.61,4.42,0,8.78.35,11.56.21,1.18,0,11.89-.46,11.89-1.49s-1.8-2-4.49-1.82c-5.55.42-18.57.15-24.5.33a12.18,12.18,0,0,1-1.48,0A26.54,26.54,0,0,0,314.3,91.83Z"/><path class="cls-2" d="M263.58,109.55c-2.39,0-4.77.67-4.72,1.2s3.18.83,5.57.81c10.91-.15,10.95.27,21.86.13,2.22,0,4-.78,4-1.3s-1.89-.68-4.15-.65c-10.91.09-10.91-.28-21.83-.19Z"/><path class="cls-2" d="M222.43,109.27c0,.44.84,1,1.77,1,3.56-.13,2.46,0,6-.17h1.18a1.75,1.75,0,0,0,1.76-1.3c0-.51-.86-.58-1.83-.54-3.57.17-3.59-.18-7.16,0C223.26,108.33,222.44,108.84,222.43,109.27Z"/><path class="cls-2" d="M296.32,85.12c-5,0-26,.74-31.11.11-5.53-.67-19.85-1.3-24.72-1.3-5.37,0-11,.74-16,.73s-9.3-.18-13.33-.17c-8.07.09-4.44.34-11.15.57-1.3,0-3.51.33-3.56,1.3s1.81,1.93,3.2,2c6.71.24,3.46-.34,11.52-.25,4,0,8.73,1.3,13.77,1.3s10.41-.81,15.78-.83c5,0,10.05.55,14.8.52,5.41,0,10.48.08,14.77,0,8.07-.09,6.73-.37,13.44-.44a2.91,2.91,0,0,0,.59,0h1.4c5.29,0,5.29-.73,10.59-.77,1.14,0,2.32-.61,2.32-1.51S297.47,85.13,296.32,85.12Z"/><path class="cls-2" d="M301.63,86.77c0,1,2,1.94,4.22,1.94,10.69-.15,8.39-.56,19.08-.71,2.26,0,4.82-.52,4.82-1.45s-2.19-1.06-4.46-1.06c-10.69-.15-8.74-.71-19.43-.86C303.6,84.63,301.63,85.83,301.63,86.77Z"/><path class="cls-2" d="M340,85.49c-3.71.07-7.3.74-6.91,1.43s4.62,1.15,8.33,1.07c10.61-.21,10.34-.7,21-.91,2.06,0,3.9.18,4.14-.22s-1.2-1.2-3.67-1.3c-10.61-.21-8.37.11-19-.09C343.36,85.51,340.42,85.48,340,85.49Z"/><path class="cls-2" d="M232.44,76c4.32-.17,8.39.46,11.85.33,6.91-.25,4.29-.22,10-.63.81,0,2.31-.56,2.41-1.08s-.84-.76-1.81-.84c-5.74-.4-4.61,0-11.51-.27-3.45-.13-7.43-.91-11.71-1a78,78,0,0,0-10.48.34C216.25,73.76,222.43,76.38,232.44,76Z"/><path class="cls-2" d="M214.16,74.59c-2.8-2.19-7.27-1.47-9.56-1.63-30.7-2.42-55.13,3.9-71.22,22.65,0,0,3.44,2.1,11.63-2.81,7.15-4.3,16.28-12.46,30-15.68a38.68,38.68,0,0,1,10.4-.9h.1c16.27.42,20.32,0,24.92,0C210.48,76.22,216.38,76.31,214.16,74.59Z"/><path class="cls-3" d="M239.27,48.91c-.18-.48-.32-.94-.44-1.3a5.32,5.32,0,0,0-1.65-2.76,4.14,4.14,0,0,1-1.41-2.16l-2.49-9.22a7,7,0,0,0-11.9-2.89L208.5,44.63a83.12,83.12,0,0,1-39.62,24.09h0s1.79.88,6.1.67a6.86,6.86,0,0,1,1.11,0,38.09,38.09,0,0,0,4.77-.44,123.13,123.13,0,0,1,13-1,145.35,145.35,0,0,0,14.55-1.77,126.6,126.6,0,0,0,14.31-3.9,62.57,62.57,0,0,0,6.15-2.6,37.23,37.23,0,0,0,5.32-2.38,12.75,12.75,0,0,0,4.4-4.27,6.84,6.84,0,0,0,.74-1.79A5.79,5.79,0,0,0,239.27,48.91Z"/><path class="cls-3" d="M290.37,32l-3.9-10.25a9.42,9.42,0,0,0-15.22-3.56l-28.4,26.45a3.79,3.79,0,0,1-1.3.79,6.91,6.91,0,0,1,.93,4.35c-.27,3.54.55,8.7-10,13-9.83,4-16.15,6.31-17.35,6.6h31.92a31.22,31.22,0,0,0,11.1-2.08l.42-.16c1.39-.51,2.79-1,4.2-1.46s2.74-1,4.12-1.53a67.55,67.55,0,0,0,7.81-3.52,69,69,0,0,0,6.41-4.76c.5-.38,1-.72,1.53-1.06l1.42-1.08a17,17,0,0,0,2.6-2.18,35.33,35.33,0,0,0,4.94-6,22.44,22.44,0,0,0,2.85-6c.2-1,.51-2.15.76-3.06A7.25,7.25,0,0,1,290.37,32Z"/><path class="cls-3" d="M332.78,40.39l-6.63-9.76a11.28,11.28,0,0,0-15.67-2.95,10.63,10.63,0,0,0-1,.77L302,35a7.11,7.11,0,0,1-3.72,1.65,27.35,27.35,0,0,1-3.68,12.26,34.88,34.88,0,0,1-12.26,11.61c-4.22,2.6-13.08,7.8-15,8.91h30.82a13.48,13.48,0,0,0,8-2.6,5.22,5.22,0,0,1,.48-.34c4.05-2.73,7.8-5.2,11.71-7.4,2-1.15,4.42-2.39,6.29-3.36s3.8-1.52,5.48-2.26c3.35-1.48,4.81-2,6.1-2.46,1.08-.34,2.05-.69,4-1.3h0a8.55,8.55,0,0,0,2.26-1A24.5,24.5,0,0,1,332.78,40.39Z"/><path class="cls-3" d="M346.73,50.21s-10.41,3.9-14.09,6.06-13.79,6.2-17.69,9.61a46.13,46.13,0,0,1-4.33,3.42h61.3a14.69,14.69,0,0,0-6.5-12.25,42.9,42.9,0,0,0-16.78-6.41c-.65-.12-1.29-.27-1.91-.43Z"/></svg>