<svg id="Layer_1" data-name="Layer 1" xmlns="http://www.w3.org/2000/svg" viewBox="0 0 506 144"><defs><style>.cls-1,.cls-4,.cls-5,.cls-6{fill:#7a941a;}.cls-2{fill:#9cc212;}.cls-3,.cls-4,.cls-5,.cls-6{isolation:isolate;}.cls-4,.cls-5,.cls-6{font-size:23.75px;font-family:LimesSans-Bold, Limes Sans;font-weight:700;}.cls-4{letter-spacing:0.3em;}.cls-5{letter-spacing:0.2em;}.cls-6{letter-spacing:0.3em;}</style></defs><title>13</title><path class="cls-1" d="M210.37,59.52c4.39.07,4.38.23,8.77.29s4.4-.06,8.79,0,4.41-.15,8.8-.09,4.4-.13,8.79-.07,4.49.26,8.89.32,4.41-.15,8.8-.08c.92,0,2,.33,2,.79s-1.11.87-2,.89c-4.39.06-4.37.27-8.76.33s-4.39.08-8.78.15-4.41-.15-8.81-.08l-8.77.12c-4.39.07-4.39.16-8.78.23s-4.39.28-8.78.34-3.8-.66-8.2-.59c-1.89,0-3.91-.66-3.84-1.37C198.64,59,206,59.46,210.37,59.52Z"/><path class="cls-1" d="M296.13,60.35c0-.48-1.67-1-2.64-1-5.86,0-5.85-.24-11.71-.29s-12.46.41-13.38,1.33c-.44.41.47,1.42,1.67,1.41,5.85,0,5.84-.31,11.7-.36s5.85-.35,11.71-.4C294.38,61,296.11,60.82,296.13,60.35Z"/><path class="cls-1" d="M328.77,59.3c-4.79,0-4.79-.24-9.59-.3H309c-4.69,0-8.23.27-8.31.27-1.52,0-2.51.48-2.49,1a1.35,1.35,0,0,0,1.3,1.4h10c4.79,0,4.79-.3,9.59-.35s4.78-.35,9.59-.4c.78,0,2.16-.17,2.17-.64S329.57,59.31,328.77,59.3Z"/><path class="cls-1" d="M288.94,59.3c0,1.19-9.63.91-9.59-.3"/><path class="cls-1" d="M334.11,59.24c-1,.1-1.46.68-1.43,1.12s.95,1.14,1.69,1.13c4-.1,4-.23,8-.33a1,1,0,0,0,.92-.81c0-.35-.45-.79-1.36-.75-4,.17-1.6-.21-5.62-.29A18.3,18.3,0,0,0,334.11,59.24Z"/><path class="cls-1" d="M294,79.63c-1.36,0-2.86.85-2.81,1.3s1.73,1.13,3.12,1.11c7.38-.08,7.36-.23,14.74-.32,1,0,1.66-.48,1.69-.81s-.68-.37-1.74-.38c-7.38-.09-6.4-.8-13.78-.89Z"/><path class="cls-1" d="M308.73,84.25c0-.45-2.92-1-4.54-1-3.82,0-3.82-.18-7.65-.18-1.61,0-3.64.7-3.64,1.15s2.07.77,3.64.77c3.83,0,3.83-.24,7.65-.24C305.8,84.78,308.73,84.7,308.73,84.25Z"/><path class="cls-1" d="M277.23,91.32c0-.3-.89-.65-1.42-.67-3.11,0-3.11-.14-6.23-.17s-1.5,0-4.61,0c0,0-3.11,0-3,.85a1.52,1.52,0,0,0,1.38.86c3.12,0,3.12-.19,6.23-.22s3.12-.23,6.23-.26C276.31,91.7,277.23,91.62,277.23,91.32Z"/><path class="cls-1" d="M268.85,76.77c0-.48-1.36-1-2.15-1-4.81,0-2.08-.24-6.86-.29s-3.89.45-8.68.41c0,0-4.93-.39-5.55.8-.28.53.37,1.31,2.08,1.3,4.81,0,4.64-.07,9.43-.13s4.79-.35,9.6-.4C267.46,77.39,268.84,77.24,268.85,76.77Z"/><path class="cls-1" d="M314.56,76.77c0-.48-1.37-1-2.17-1-4.8,0-8.11-.23-12.9-.28s-8.64.24-8.66.24c-1.68-.11-2.32.49-2.31,1s1.68,1,2.66,1c4.81,0,3.5.12,8.31.06s8.1-.35,12.9-.4C313.16,77.39,314.54,77.24,314.56,76.77Z"/><path class="cls-1" d="M220.37,74.9c-1.26,0-2.66,1-2.62,1.55s1.61,1.37,2.88,1.35c6.87-.1,6.86-.28,13.73-.38a1.56,1.56,0,0,0,1.58-1c0-.41-.65-.43-1.63-.44-6.87-.12-5.95-1-12.83-1Z"/><path class="cls-1" d="M266.8,88.08c0-.45-1.35-1-2.08-1-3,0-3-.18-6-.18-.73,0-1.68.7-1.68,1.15s.95.77,1.68.77c3,0,3-.24,6-.24C265.45,88.59,266.8,88.53,266.8,88.08Z"/><path class="cls-1" d="M278.13,88.08c0-.45-1.33-1-2.07-1-3,0-3-.18-6-.18-.74,0-1.68.7-1.68,1.15s.94.77,1.68.77c3,0,3-.24,6-.24C276.8,88.59,278.13,88.53,278.13,88.08Z"/><path class="cls-1" d="M304.76,87.13c0-.45-1-1-1.52-1-2.21,0-2.21-.18-4.4-.18a1.49,1.49,0,0,0-1.22,1.16c0,.44.68.75,1.22.75,2.19,0,2.19-.23,4.4-.23C303.8,87.65,304.76,87.55,304.76,87.13Z"/><path class="cls-1" d="M273.25,94.44c0-.44-1-1-1.53-1-2.2,0-2.2-.19-4.39-.19a1.48,1.48,0,0,0-1.23,1.15c0,.45.69.77,1.23.77,2.19,0,2.19-.23,4.39-.23C272.26,95,273.25,94.89,273.25,94.44Z"/><path class="cls-1" d="M235.3,80.63c0-.45-2.49-1-3.86-1-3.27,0-3.27-.19-6.53-.19-1.38,0-3.11.71-3.11,1.16s1.74.75,3.11.75c3.26,0,3.26-.22,6.53-.22C232.81,81.16,235.3,81.07,235.3,80.63Z"/><path class="cls-1" d="M285.78,77c0-.44-2.5-1-3.87-1-3.27,0-3.27-.18-6.53-.18-1.38,0-3.11.71-3.11,1.15s1.74.76,3.11.76c3.26,0,3.26-.23,6.53-.23C283.28,77.51,285.78,77.42,285.78,77Z"/><path class="cls-1" d="M255.75,56.05c-.15.4,1.1.75,2.37.81,4.23.17,3.37.2,8.47.3,1.28,0,2.64.31,4.09.33s3-.36,4.63-.36c3.19,0,6.58.44,10,.44,1.7,0,3.39-.37,5.06-.37s3.34.08,4.92.06c3.19,0,6.23.07,8.76,0,5.1-.12,4.28-.2,8.5-.4a.83.83,0,0,0,.94-.64c.11-.25-.08-.45-1-.51-4.22-.2-3.4,0-8.5-.14-2.54-.06-5.44-.48-8.63-.51-1.58,0-3.24.11-4.92.11s-3.36-.44-5.06-.43c-3.4,0-6.78.53-10,.56-1.59,0-3.11-.11-4.6-.08s-2.9-.36-4.15-.34c-5.09.1-4.15.53-8.37.71C257.16,55.63,255.89,55.7,255.75,56.05Z"/><path class="cls-1" d="M213.24,71.38c-.15.64,1,1.19,2.14,1.27,3.87.29,3.12-.1,7.73.48a55.51,55.51,0,0,0,7.95,0c2.91,0,6,.71,9.09.71,1.55,0,3.12-.58,4.62-.59s3,.12,4.49.09c2.9,0,5.65.11,8,0,4.65-.2,2.55-.19,6.4-.52.69-.06,2.26-.58,2.36-1s-.83-.83-1.72-.91c-3.85-.33-2.52,0-7.16-.17-2.32-.11-5-.75-7.86-.82-1.46,0-3,.28-4.49.19a104.42,104.42,0,0,0-13.7.2c-1.45,0-2.87-.16-4.15-.14s-2.65-.55-3.81-.52c-4.64.15-3.78.84-7.63,1.11C214.5,70.71,213.41,70.84,213.24,71.38Z"/><path class="cls-1" d="M345,56.51c.17-.31-.6-.61-1.32-.69a22.34,22.34,0,0,0-2.45-.25c-1.49-.08-13.93-.43-15.92-.41-1,0-1.89.28-2.82.28a24.42,24.42,0,0,0-5,.51,1.69,1.69,0,0,0-.94.23c-.11.15.14.78.71.85,1.21.16,1.13,0,2.61.11.74,0,1.71-.23,2.63-.21s1.89.08,2.89.09c2,0,17.18.07,18.39-.06A2.32,2.32,0,0,0,345,56.51Z"/><path class="cls-1" d="M268.36,71.62c-.12.67.85,1.22,1.84,1.27a31.57,31.57,0,0,0,3.5.19,39.57,39.57,0,0,0,7.69-.43c1.39-.2,2.87.42,4.16.31s2.46-.72,3.51-.83a34.9,34.9,0,0,0,3.54-.33c.33-.06,1-.28,1.15-.52s-.66-.9-1.17-1c-1.73-.21-1.49.24-3.6.12-1-.06-2.25-.15-3.57-.18s-2.71.17-4.15.17-2.79-.46-4.15-.42-2.54.32-3.58.38c-2.08.12-1.82-.13-3.56.06C269.29,70.56,268.43,71.06,268.36,71.62Z"/><path class="cls-1" d="M251.09,81.15c-.14.6,1,1,2.25,1.14,2.07.08,1.68.15,4.23.15,1.28,0,2.77.32,4.37.28s3.27-.59,5-.65,3.49.36,5.08.26,3-.62,4.27-.74c2.54-.19,2.2,0,4.29-.28.41,0,1.31-.25,1.4-.46s-.79-.79-1.41-.85c-2.07-.18-1.81.21-4.37.12-1.27-.06-2.74-.15-4.34-.17s-3.29.16-5,.16-3.38-.42-5-.38-3.06.28-4.34.34c-2.54.1-2.26-.44-4.37-.26A2.55,2.55,0,0,0,251.09,81.15Z"/><path class="cls-1" d="M298.53,69.9c-2.52.23-2.92.66-2.9,1.53S297,72.8,298,72.75c2.41-.13,6.32-.47,10.17-.49,3.52,0,7,.28,9.22.17.95,0,9.49-.37,9.49-1.19s-1.43-1.61-3.58-1.45c-4.43.33-14.82.11-19.56.26a7.75,7.75,0,0,1-1.18,0A22.5,22.5,0,0,0,298.53,69.9Z"/><path class="cls-1" d="M258.05,84.05c-1.91,0-3.81.53-3.77,1s2.54.66,4.44.64c8.71-.11,8.74.22,17.45.11,1.78,0,3.21-.63,3.21-1s-1.5-.54-3.31-.52c-8.71.07-8.71-.22-17.42-.15Z"/><path class="cls-1" d="M225.2,83.82c0,.36.68.81,1.42.79,2.84-.1,2,0,4.8-.13h1c.79,0,1.41-.63,1.4-1s-.69-.46-1.47-.43c-2.84.14-2.86-.14-5.7,0C225.87,83.08,225.22,83.48,225.2,83.82Z"/><path class="cls-1" d="M284.18,64.55c-4,0-20.76.59-24.83.09-4.42-.54-15.84-1-19.73-1-4.28,0-8.77.59-12.8.58s-7.42-.14-10.64-.13c-6.43.07-3.54.27-8.89.46-1,0-2.8.26-2.85,1s1.45,1.54,2.56,1.58c5.35.19,2.76-.27,9.19-.2,3.22,0,7,1,11,1s8.3-.65,12.59-.66c4,0,8,.43,11.81.41,4.32,0,8.37.07,11.79,0,6.44-.07,5.37-.3,10.73-.35a3.53,3.53,0,0,0,.46,0h1.13c4.22,0,4.22-.58,8.45-.61.91,0,1.85-.49,1.85-1.21S285.1,64.56,284.18,64.55Z"/><path class="cls-1" d="M288.42,65.87c0,.75,1.56,1.54,3.37,1.54,8.53-.11,6.69-.44,15.22-.56,1.81,0,3.85-.41,3.85-1.16s-1.75-.84-3.56-.84c-8.53-.13-7-.57-15.5-.69C290,64.16,288.42,65.12,288.42,65.87Z"/><path class="cls-1" d="M319,64.85c-3,.05-5.82.59-5.51,1.14s3.69.91,6.64.85c8.48-.16,8.26-.56,16.74-.72,1.64,0,3.11.14,3.3-.18s-1-1-2.93-1c-8.47-.17-6.68.09-15.16-.07C321.72,64.86,319.38,64.84,319,64.85Z"/><path class="cls-1" d="M233.2,57.25c3.44-.13,6.69.36,9.45.26,5.52-.2,3.43-.18,8-.5.64,0,1.85-.44,1.92-.86s-.67-.61-1.44-.67c-4.58-.33-3.68,0-9.19-.22-2.75-.11-5.93-.73-9.34-.79a61.52,61.52,0,0,0-8.37.27C220.27,55.49,225.2,57.57,233.2,57.25Z"/><path class="cls-1" d="M218.6,56.15c-2.23-1.75-5.8-1.17-7.63-1.31-24.5-1.93-44,3.12-56.84,18.08,0,0,2.75,1.68,9.28-2.24,5.71-3.43,13-9.94,24-12.52a30.85,30.85,0,0,1,8.3-.71h.09c13,.33,16.21,0,19.88,0C215.66,57.45,220.38,57.52,218.6,56.15Z"/><path class="cls-2" d="M238.65,35.65c-.15-.39-.26-.75-.36-1a4.26,4.26,0,0,0-1.31-2.2,3.21,3.21,0,0,1-1.12-1.72l-2-7.36A5.58,5.58,0,0,0,227,19.41,5.66,5.66,0,0,0,224.36,21L214.09,32.23a66.37,66.37,0,0,1-31.62,19.23h0s1.42.7,4.87.54a4.31,4.31,0,0,1,.88,0,30.5,30.5,0,0,0,3.81-.36,100,100,0,0,1,10.38-.75c3.85-.22,9.66-1,11.61-1.41a101.93,101.93,0,0,0,11.42-3.12,45.16,45.16,0,0,0,4.91-2.08,28.34,28.34,0,0,0,4.25-1.89A10.23,10.23,0,0,0,238.11,39a5.75,5.75,0,0,0,.59-1.43A4.68,4.68,0,0,0,238.65,35.65Z"/><path class="cls-2" d="M279.43,22.15,276.32,14a7.53,7.53,0,0,0-12.15-2.84L241.5,32.24a3.18,3.18,0,0,1-1,.64,5.46,5.46,0,0,1,.75,3.46c-.22,2.83.44,6.95-8,10.38-7.85,3.18-12.89,5-13.85,5.27h25.48a25.09,25.09,0,0,0,8.86-1.66l.33-.13c1.11-.4,2.23-.79,3.36-1.16s2.19-.83,3.29-1.23A52.61,52.61,0,0,0,266.94,45a52.57,52.57,0,0,0,5.12-3.8c.41-.3.82-.57,1.23-.84l1.13-.86a13.83,13.83,0,0,0,2.07-1.74,28.48,28.48,0,0,0,3.95-4.82,17.84,17.84,0,0,0,2.27-4.79c.16-.78.41-1.71.6-2.44A5.78,5.78,0,0,1,279.43,22.15Z"/><path class="cls-2" d="M313.28,28.85,308,21.06a9,9,0,0,0-12.51-2.36,9.5,9.5,0,0,0-.8.62l-6,5.19a5.66,5.66,0,0,1-3,1.32,21.63,21.63,0,0,1-2.93,9.78A27.84,27.84,0,0,1,273,44.88C269.64,47,262.57,51.1,261,52h24.6A10.75,10.75,0,0,0,292,49.91c.13-.09.25-.19.39-.27,3.22-2.18,6.22-4.15,9.34-5.91,1.58-.91,3.53-1.91,5-2.67s3-1.22,4.37-1.81c2.68-1.18,3.84-1.6,4.87-2,.86-.27,1.64-.55,3.18-1h0a7,7,0,0,0,1.8-.82A19.63,19.63,0,0,1,313.28,28.85Z"/><path class="cls-2" d="M324.41,36.69s-8.3,3.11-11.24,4.83-11,5-14.12,7.67a37.58,37.58,0,0,1-3.45,2.73h48.92a11.71,11.71,0,0,0-5.19-9.77A34.31,34.31,0,0,0,325.94,37c-.52-.1-1-.21-1.53-.34Z"/><g class="cls-3"><text class="cls-4" transform="translate(153.71 125.99)">O</text><text class="cls-5" transform="translate(172.12 125.99)">V</text><text class="cls-6" transform="translate(187.53 125.99)"><tspan xml:space="preserve"> LANDSCAPE</tspan></text></g></svg>