<svg id="Layer_1" data-name="Layer 1" xmlns="http://www.w3.org/2000/svg" viewBox="0 0 506 144"><defs><style>.cls-1,.cls-6{fill:#7a941a;}.cls-2,.cls-4,.cls-5{fill:#9cc212;}.cls-3,.cls-4,.cls-5{isolation:isolate;}.cls-4,.cls-5{font-size:45.58px;}.cls-4,.cls-5,.cls-6{font-family:LimesSans-Bold, Limes Sans;font-weight:700;}.cls-4{letter-spacing:0.3em;}.cls-5{letter-spacing:0.2em;}.cls-6{font-size:21.02px;letter-spacing:0.3em;}</style></defs><title>15</title><path class="cls-1" d="M157.79,75.67c4.39.06,4.38.23,8.77.29s4.41-.06,8.8,0,4.4-.16,8.79-.09,4.4-.14,8.79-.08,4.5.26,8.89.33,4.41-.15,8.8-.09c.92,0,2,.33,2,.79s-1.11.87-2,.89c-4.39.07-4.37.27-8.76.34s-4.39.08-8.78.14-4.4-.14-8.81-.07l-8.77.11c-4.39.08-4.39.17-8.78.23s-4.39.28-8.78.34-3.8-.65-8.2-.59c-1.89,0-3.9-.65-3.84-1.37C146.06,75.13,153.4,75.61,157.79,75.67Z"/><path class="cls-1" d="M243.56,76.5c0-.49-1.67-1-2.65-1-5.85,0-5.84-.24-11.71-.29s-12.46.42-13.38,1.34c-.44.4.47,1.41,1.67,1.4,5.86,0,5.85-.3,11.7-.35s5.86-.35,11.71-.41C241.8,77.12,243.54,77,243.56,76.5Z"/><path class="cls-1" d="M276.19,75.44c-4.79,0-4.79-.24-9.59-.29H256.46c-4.69,0-8.23.27-8.3.27-1.53,0-2.52.48-2.5,1a1.36,1.36,0,0,0,1.3,1.4h10c4.79,0,4.79-.3,9.59-.35s4.79-.36,9.59-.41c.78,0,2.16-.16,2.17-.63S277,75.45,276.19,75.44Z"/><path class="cls-1" d="M236.36,75.44c0,1.19-9.63.91-9.59-.29"/><path class="cls-1" d="M281.53,75.39c-1,.09-1.45.67-1.42,1.12s.94,1.13,1.68,1.12c4-.09,4-.23,8-.32a1,1,0,0,0,.93-.81c0-.35-.46-.79-1.36-.76-4,.18-1.61-.21-5.63-.29A20.57,20.57,0,0,0,281.53,75.39Z"/><path class="cls-1" d="M241.42,95.78c-1.36,0-2.86.85-2.8,1.29s1.72,1.14,3.11,1.11c7.38-.08,7.36-.22,14.74-.32,1,0,1.66-.47,1.69-.81s-.68-.36-1.74-.37c-7.38-.09-6.4-.8-13.78-.89Z"/><path class="cls-1" d="M256.15,100.4c0-.45-2.92-1-4.54-1-3.82,0-3.82-.19-7.65-.19-1.61,0-3.64.71-3.64,1.16s2.07.76,3.64.76c3.83,0,3.83-.24,7.65-.24C253.22,100.92,256.15,100.84,256.15,100.4Z"/><path class="cls-1" d="M224.65,107.46c0-.3-.89-.65-1.42-.66-3.11,0-3.11-.15-6.23-.18s-1.5,0-4.61,0c0,0-3.11,0-3,.86a1.52,1.52,0,0,0,1.38.86c3.11,0,3.11-.19,6.23-.22s3.11-.23,6.22-.26C223.73,107.85,224.65,107.77,224.65,107.46Z"/><path class="cls-1" d="M216.28,92.91c0-.48-1.36-1-2.16-1-4.81,0-2.08-.24-6.85-.29s-3.9.46-8.69.42c0,0-4.93-.4-5.54.8-.28.53.36,1.3,2.07,1.29,4.81,0,4.64-.07,9.44-.12s4.78-.35,9.59-.4C214.89,93.53,216.27,93.39,216.28,92.91Z"/><path class="cls-1" d="M262,92.91c0-.48-1.37-1-2.17-1-4.79,0-8.1-.23-12.9-.28s-8.64.24-8.66.24c-1.68-.1-2.32.5-2.31,1s1.68,1,2.67,1c4.8,0,3.49.11,8.3.06s8.11-.35,12.9-.4C260.58,93.53,262,93.39,262,92.91Z"/><path class="cls-1" d="M167.79,91c-1.26,0-2.66,1-2.62,1.56S166.78,94,168.05,94c6.87-.1,6.86-.28,13.73-.38a1.57,1.57,0,0,0,1.58-1c0-.42-.64-.44-1.63-.45-6.87-.11-5.95-1-12.83-1Z"/><path class="cls-1" d="M214.22,104.23c0-.45-1.35-1-2.07-1-3,0-3-.19-6-.19-.73,0-1.68.71-1.68,1.16s.95.76,1.68.76c3,0,3-.23,6-.23C212.87,104.73,214.22,104.67,214.22,104.23Z"/><path class="cls-1" d="M225.56,104.23c0-.45-1.34-1-2.08-1-3,0-3-.19-6-.19-.74,0-1.68.71-1.68,1.16s.94.76,1.68.76c3,0,3-.23,6-.23C224.22,104.73,225.56,104.67,225.56,104.23Z"/><path class="cls-1" d="M252.18,103.27c0-.45-1-1-1.52-1-2.2,0-2.2-.18-4.39-.18a1.48,1.48,0,0,0-1.23,1.15c0,.45.69.76,1.23.76,2.19,0,2.19-.23,4.39-.23C251.22,103.8,252.18,103.7,252.18,103.27Z"/><path class="cls-1" d="M220.67,110.59c0-.45-1-1-1.53-1-2.2,0-2.2-.18-4.39-.18a1.47,1.47,0,0,0-1.22,1.15c0,.45.68.77,1.22.77,2.19,0,2.19-.23,4.39-.23C219.68,111.13,220.67,111,220.67,110.59Z"/><path class="cls-1" d="M182.73,96.77c0-.44-2.49-1-3.86-1-3.27,0-3.27-.19-6.53-.19-1.38,0-3.12.71-3.12,1.15s1.75.76,3.12.76c3.26,0,3.26-.23,6.53-.23C180.24,97.3,182.73,97.22,182.73,96.77Z"/><path class="cls-1" d="M233.2,93.13c0-.45-2.49-1-3.86-1-3.27,0-3.27-.17-6.53-.17-1.38,0-3.12.7-3.12,1.15s1.75.76,3.12.76c3.26,0,3.26-.23,6.53-.23C230.71,93.66,233.2,93.57,233.2,93.13Z"/><path class="cls-1" d="M203.18,72.19c-.16.41,1.1.76,2.36.81,4.23.18,3.38.21,8.47.3,1.28,0,2.64.31,4.09.33s3.05-.36,4.63-.36c3.19,0,6.59.45,10,.45,1.7,0,3.39-.38,5.07-.38s3.33.09,4.92.07c3.18,0,6.22.07,8.76,0,5.09-.13,4.27-.2,8.49-.41.76,0,.83-.38.94-.63s-.08-.46-1-.51c-4.22-.21-3.4,0-8.5-.15-2.54-.06-5.44-.47-8.62-.5-1.59,0-3.25.11-4.92.11s-3.37-.45-5.07-.44c-3.39,0-6.78.53-10,.56-1.59,0-3.12-.1-4.6-.08S215.27,71,214,71c-5.09.09-4.15.53-8.37.7C204.58,71.78,203.31,71.85,203.18,72.19Z"/><path class="cls-1" d="M160.66,87.52c-.15.65,1,1.2,2.15,1.28,3.86.28,3.11-.1,7.72.48a55.51,55.51,0,0,0,7.95,0c2.91,0,6,.7,9.1.7,1.54,0,3.11-.58,4.61-.59s3,.13,4.49.1c2.91-.06,5.66.11,8,0,4.65-.2,2.56-.19,6.41-.52.68-.07,2.25-.58,2.35-1s-.83-.83-1.72-.91c-3.85-.34-2.51,0-7.15-.17-2.33-.12-5-.76-7.87-.82-1.45,0-3,.28-4.49.19a104.41,104.41,0,0,0-13.7.19c-1.45,0-2.86-.15-4.15-.13s-2.65-.55-3.81-.52c-4.64.14-3.78.84-7.63,1.11C161.92,86.86,160.83,87,160.66,87.52Z"/><path class="cls-1" d="M292.43,72.66c.18-.31-.59-.61-1.32-.7s-1.63-.21-2.45-.25c-1.48-.08-13.93-.42-15.91-.4-1,0-1.9.28-2.83.28a23.75,23.75,0,0,0-5,.51,1.63,1.63,0,0,0-.94.23c-.11.14.14.78.71.85,1.22.15,1.13,0,2.62.1.73,0,1.7-.23,2.62-.21s1.89.09,2.89.1c2,0,17.18.07,18.39-.06A2.3,2.3,0,0,0,292.43,72.66Z"/><path class="cls-1" d="M215.78,87.76c-.12.68.85,1.23,1.85,1.28a34,34,0,0,0,3.49.19,40.48,40.48,0,0,0,7.7-.43c1.38-.21,2.86.42,4.15.3s2.46-.71,3.51-.83c2.07-.24,1.8,0,3.54-.32.33-.06,1-.28,1.15-.52s-.65-.9-1.16-1c-1.74-.21-1.5.23-3.6.12-1-.06-2.26-.16-3.58-.19s-2.71.18-4.15.18-2.79-.47-4.15-.43-2.53.33-3.58.39c-2.08.11-1.82-.14-3.56.06C216.71,86.7,215.85,87.2,215.78,87.76Z"/><path class="cls-1" d="M198.52,97.29c-.15.6,1,1,2.24,1.14,2.07.09,1.68.16,4.23.16,1.28,0,2.78.31,4.37.28s3.27-.59,5-.65,3.48.36,5.07.26,3-.63,4.27-.74c2.54-.2,2.2,0,4.3-.28.4,0,1.3-.25,1.4-.47s-.8-.79-1.41-.84c-2.08-.19-1.82.21-4.37.11-1.28-.06-2.75-.14-4.34-.16s-3.29.15-5,.15-3.38-.41-5-.37-3.06.28-4.34.33c-2.54.11-2.26-.43-4.37-.26A2.54,2.54,0,0,0,198.52,97.29Z"/><path class="cls-1" d="M246,86.05c-2.53.23-2.93.65-2.91,1.53s1.35,1.37,2.37,1.31c2.4-.12,6.32-.46,10.16-.48,3.53,0,7,.28,9.23.16.94,0,9.48-.36,9.48-1.18s-1.43-1.61-3.58-1.45c-4.43.33-14.82.11-19.55.25a7.88,7.88,0,0,1-1.19,0A22.39,22.39,0,0,0,246,86.05Z"/><path class="cls-1" d="M205.47,100.2c-1.91,0-3.81.53-3.77,1s2.55.67,4.45.65c8.71-.12,8.74.21,17.45.1,1.77,0,3.2-.62,3.2-1s-1.5-.54-3.31-.52c-8.71.08-8.71-.21-17.42-.14Z"/><path class="cls-1" d="M172.63,100c0,.35.67.81,1.41.79,2.84-.1,2,0,4.81-.14h.94c.79,0,1.41-.63,1.4-1s-.68-.46-1.46-.43c-2.85.14-2.87-.15-5.71,0C173.29,99.22,172.64,99.63,172.63,100Z"/><path class="cls-1" d="M231.6,80.69c-4,0-20.76.59-24.83.1-4.41-.54-15.84-1-19.72-1-4.29,0-8.78.59-12.8.58s-7.43-.15-10.64-.13c-6.44.07-3.54.26-8.9.45-1,0-2.8.26-2.84,1s1.44,1.54,2.55,1.58c5.36.18,2.76-.27,9.2-.2,3.21,0,7,1,11,1s8.3-.66,12.59-.67c4,0,8,.44,11.81.42,4.32,0,8.37.06,11.8,0,6.43-.07,5.36-.3,10.72-.35h1.59c4.22,0,4.22-.58,8.45-.62.91,0,1.86-.48,1.86-1.2S232.52,80.7,231.6,80.69Z"/><path class="cls-1" d="M235.84,82c0,.76,1.56,1.55,3.37,1.55,8.53-.12,6.69-.45,15.23-.56,1.8,0,3.85-.42,3.85-1.16s-1.76-.85-3.56-.85c-8.54-.12-7-.57-15.51-.68C237.41,80.31,235.84,81.26,235.84,82Z"/><path class="cls-1" d="M266.43,81c-3,.06-5.83.6-5.52,1.15s3.69.91,6.65.85c8.47-.17,8.25-.56,16.73-.73,1.64,0,3.11.15,3.3-.18s-.95-1-2.93-1c-8.47-.17-6.68.09-15.16-.08C269.15,81,266.8,81,266.43,81Z"/><path class="cls-1" d="M180.62,73.4c3.45-.14,6.7.36,9.46.26,5.51-.2,3.42-.18,8-.5.64,0,1.85-.45,1.92-.86s-.66-.62-1.44-.68c-4.58-.32-3.68,0-9.19-.22-2.75-.1-5.93-.72-9.34-.79a65,65,0,0,0-8.37.27C167.7,71.63,172.63,73.72,180.62,73.4Z"/><path class="cls-1" d="M166,72.3c-2.24-1.76-5.81-1.18-7.63-1.31-24.5-1.93-44,3.11-56.85,18.08,0,0,2.75,1.67,9.28-2.24,5.71-3.44,13-10,24-12.52a31.3,31.3,0,0,1,8.3-.72h.09c13,.34,16.21,0,19.89,0C163.09,73.59,167.8,73.67,166,72.3Z"/><path class="cls-2" d="M186.07,51.79c-.15-.38-.26-.74-.35-1a4.14,4.14,0,0,0-1.32-2.2,3.29,3.29,0,0,1-1.12-1.73l-2-7.36a5.57,5.57,0,0,0-9.49-2.3L161.51,48.38A66.3,66.3,0,0,1,129.89,67.6h0s1.42.71,4.87.54a4.31,4.31,0,0,1,.88,0,28.55,28.55,0,0,0,3.81-.35A97.53,97.53,0,0,1,149.83,67c3.85-.22,9.67-1,11.62-1.41a105.3,105.3,0,0,0,11.42-3.11,51.59,51.59,0,0,0,4.91-2.08,28.74,28.74,0,0,0,4.24-1.9,10.11,10.11,0,0,0,3.51-3.4,5.67,5.67,0,0,0,.59-1.44A4.51,4.51,0,0,0,186.07,51.79Z"/><path class="cls-2" d="M226.86,38.3l-3.12-8.18a7.52,7.52,0,0,0-9.69-4.37,7.44,7.44,0,0,0-2.45,1.53L188.92,48.39a3.21,3.21,0,0,1-1,.63,5.47,5.47,0,0,1,.74,3.47c-.21,2.82.44,6.94-8,10.38-7.85,3.18-12.89,5-13.85,5.26H192.3a24.87,24.87,0,0,0,8.86-1.66l.34-.12c1.11-.41,2.23-.79,3.35-1.17s2.19-.83,3.29-1.22a53.49,53.49,0,0,0,6.23-2.81,54.56,54.56,0,0,0,5.11-3.8c.41-.3.82-.57,1.23-.84l1.13-.86a14.5,14.5,0,0,0,2.08-1.75,27.66,27.66,0,0,0,3.94-4.82,18,18,0,0,0,2.28-4.78c.15-.78.4-1.71.6-2.44A5.78,5.78,0,0,1,226.86,38.3Z"/><path class="cls-2" d="M260.71,45l-5.3-7.78a9,9,0,0,0-12.51-2.36c-.27.19-.54.4-.8.62l-6,5.19a5.73,5.73,0,0,1-3,1.31,21.77,21.77,0,0,1-2.94,9.78A27.75,27.75,0,0,1,220.44,61c-3.37,2.08-10.44,6.23-12,7.11H233a10.65,10.65,0,0,0,6.35-2.07,3.39,3.39,0,0,1,.39-.27c3.23-2.18,6.23-4.16,9.34-5.91,1.58-.91,3.53-1.91,5-2.68s3-1.21,4.37-1.8c2.67-1.19,3.84-1.6,4.86-2s1.64-.55,3.18-1h0a7.4,7.4,0,0,0,1.81-.82A19.51,19.51,0,0,1,260.71,45Z"/><path class="cls-2" d="M271.83,52.83s-8.3,3.12-11.24,4.84-11,4.95-14.12,7.67A36.27,36.27,0,0,1,243,68.07h48.92a11.71,11.71,0,0,0-5.19-9.78,34.4,34.4,0,0,0-13.39-5.12c-.52-.09-1-.21-1.53-.34Z"/><g class="cls-3"><text class="cls-4" transform="translate(306.67 68.07)">O</text><text class="cls-5" transform="translate(341.99 68.07)">V</text></g><text class="cls-6" transform="translate(310.39 91.04)">LANDSCAPE</text></svg>