<svg id="Layer_1" data-name="Layer 1" xmlns="http://www.w3.org/2000/svg" viewBox="0 0 304.05 261.42"><defs><style>.cls-1{fill:#06abb9;}.cls-2,.cls-3{fill:#00927e;}.cls-3{font-size:9.14px;font-family:Roboto-Regular, Roboto;}.cls-4{letter-spacing:0.01em;}</style></defs><title>7</title><path class="cls-1" d="M114.24,110c4.23.06,4.22.22,8.45.28s4.24-.06,8.47,0,4.24-.14,8.47-.08,4.24-.13,8.47-.07,4.33.25,8.56.31,4.25-.14,8.48-.08c.88,0,1.94.31,1.92.76s-1.07.84-1.91.86c-4.23.06-4.22.26-8.45.32s-4.22.08-8.45.14-4.25-.14-8.48-.08l-8.45.12c-4.24.06-4.23.15-8.46.22s-4.23.26-8.46.33-3.67-.63-7.9-.57c-1.83,0-3.77-.64-3.71-1.32C102.93,109.48,110,109.94,114.24,110Z"/><path class="cls-1" d="M196.86,110.8c0-.47-1.61-1-2.55-1-5.64,0-5.64-.23-11.28-.28s-11.95.4-12.89,1.29c-.42.39.45,1.36,1.61,1.35,5.64,0,5.63-.29,11.27-.34s5.63-.35,11.28-.39C195.21,111.4,196.84,111.25,196.86,110.8Z"/><path class="cls-1" d="M228.3,109.78c-4.63,0-4.62-.23-9.25-.28-3.87,0-4.51,0-7.32,0-.66,0-1.44,0-2.44,0-4.52,0-7.93.26-7.95.26-1.47,0-2.42.46-2.41,1a1.3,1.3,0,0,0,1.32,1.35c4.39,0,9.16,0,9.56,0,4.62,0,4.61-.29,9.24-.34s4.61-.35,9.24-.39c.75,0,2.08-.16,2.09-.61S229.07,109.79,228.3,109.78Z"/><path class="cls-1" d="M189.93,109.78c0,1.15-9.28.87-9.25-.28"/><path class="cls-1" d="M233.43,109.73c-1,.08-1.39.65-1.36,1.08s.9,1.09,1.62,1.08c3.87-.09,3.86-.23,7.73-.31a1,1,0,0,0,.89-.78c0-.34-.44-.76-1.31-.73-3.87.17-1.55-.2-5.42-.28A16.47,16.47,0,0,0,233.43,109.73Z"/><path class="cls-1" d="M194.8,129.37c-1.31,0-2.75.81-2.71,1.24s1.66,1.1,3,1.08c7.11-.09,7.1-.22,14.21-.31.95,0,1.59-.46,1.63-.78s-.66-.35-1.68-.36c-7.11-.09-6.16-.77-13.27-.86Z"/><path class="cls-1" d="M209,133.82c0-.43-2.81-.93-4.36-.93-3.68,0-3.68-.18-7.37-.18-1.55,0-3.52.68-3.52,1.11s2,.74,3.52.74c3.69,0,3.69-.23,7.37-.23C206.17,134.33,209,134.25,209,133.82Z"/><path class="cls-1" d="M178.65,140.63c0-.29-.87-.63-1.38-.64-3,0-3-.14-6-.17s-1.45,0-4.44,0c0,0-3,0-2.86.83a1.44,1.44,0,0,0,1.32.83c3,0,3-.18,6-.21s3-.22,6-.25C177.76,141,178.64,140.91,178.65,140.63Z"/><path class="cls-1" d="M170.58,126.61c0-.46-1.31-1-2.08-1-4.63,0-2-.23-6.6-.28s-3.75.44-8.38.39c0,0-4.74-.37-5.34.78-.26.51.35,1.25,2,1.25,4.63,0,4.46-.07,9.09-.12s4.61-.34,9.24-.39C169.23,127.21,170.57,127.07,170.58,126.61Z"/><path class="cls-1" d="M214.61,126.61c0-.46-1.32-1-2.09-1-4.62,0-7.81-.23-12.43-.27s-8.33.23-8.34.23c-1.62-.1-2.25.48-2.23,1s1.62,1,2.57,1c4.63,0,3.37.11,8,.06s7.81-.34,12.43-.39C213.26,127.21,214.59,127.07,214.61,126.61Z"/><path class="cls-1" d="M123.87,124.81c-1.22,0-2.56,1-2.52,1.5s1.55,1.32,2.77,1.3c6.62-.11,6.6-.27,13.22-.37.89,0,1.49-.56,1.52-.95s-.62-.42-1.56-.43c-6.63-.11-5.74-.93-12.36-1Z"/><path class="cls-1" d="M168.59,137.51c0-.43-1.29-.93-2-.93-2.91,0-2.91-.18-5.81-.18-.71,0-1.62.68-1.62,1.11s.91.74,1.62.74c2.9,0,2.9-.23,5.81-.23C167.3,138,168.59,137.94,168.59,137.51Z"/><path class="cls-1" d="M179.52,137.51c0-.43-1.29-.93-2-.93-2.9,0-2.9-.18-5.8-.18-.72,0-1.62.68-1.62,1.11s.9.74,1.62.74c2.9,0,2.9-.23,5.8-.23C178.23,138,179.52,137.94,179.52,137.51Z"/><path class="cls-1" d="M205.18,136.59c0-.43-.94-.94-1.46-.94-2.12,0-2.12-.18-4.23-.18a1.45,1.45,0,0,0-1.19,1.12c0,.42.67.73,1.19.73,2.11,0,2.11-.22,4.23-.22C204.24,137.1,205.18,137,205.18,136.59Z"/><path class="cls-1" d="M174.8,143.64c0-.43-.94-.93-1.46-.93-2.12,0-2.12-.18-4.23-.18a1.44,1.44,0,0,0-1.19,1.11c0,.43.67.74,1.19.74,2.11,0,2.11-.23,4.23-.23C173.86,144.15,174.8,144.07,174.8,143.64Z"/><path class="cls-1" d="M138.26,130.33c0-.43-2.4-.94-3.73-.94-3.14,0-3.14-.17-6.29-.17-1.32,0-3,.68-3,1.11s1.68.73,3,.73c3.15,0,3.15-.22,6.29-.22C135.86,130.84,138.26,130.75,138.26,130.33Z"/><path class="cls-1" d="M186.88,126.81c0-.43-2.4-.93-3.72-.93-3.15,0-3.15-.18-6.29-.18-1.33,0-3,.68-3,1.11s1.68.74,3,.74c3.14,0,3.14-.22,6.29-.22C184.48,127.33,186.88,127.24,186.88,126.81Z"/><path class="cls-1" d="M158,106.65c-.15.39,1.06.73,2.28.78,4.07.17,3.25.2,8.16.29,1.23,0,2.54.3,3.94.31s2.93-.35,4.46-.34c3.07,0,6.34.43,9.61.43,1.64,0,3.27-.36,4.88-.37s3.21.09,4.74.07c3.07,0,6,.07,8.44,0,4.9-.12,4.11-.19,8.18-.39.73,0,.79-.37.91-.61s-.08-.45-1-.49c-4.07-.21-3.28,0-8.19-.14-2.45-.06-5.24-.46-8.31-.49-1.54,0-3.13.11-4.74.11s-3.24-.43-4.88-.43c-3.27,0-6.53.52-9.6.55-1.54,0-3-.1-4.43-.08s-2.8-.34-4-.32c-4.91.09-4,.51-8.07.68C159.31,106.25,158.09,106.32,158,106.65Z"/><path class="cls-1" d="M117,121.42c-.14.62,1,1.15,2.08,1.23,3.71.26,3-.1,7.44.46a53.39,53.39,0,0,0,7.66,0c2.8,0,5.77.68,8.76.67,1.49,0,3-.55,4.45-.57s2.92.13,4.32.1c2.8-.06,5.45.11,7.69,0,4.47-.19,2.46-.18,6.17-.5.66-.06,2.17-.56,2.27-1s-.8-.8-1.66-.88c-3.71-.32-2.42,0-6.89-.17-2.24-.1-4.79-.72-7.58-.78-1.4,0-2.86.27-4.32.18a99.62,99.62,0,0,0-13.2.19c-1.4,0-2.76-.15-4-.13s-2.55-.54-3.67-.5c-4.48.14-3.64.81-7.35,1.07C118.22,120.78,117.11,120.9,117,121.42Z"/><path class="cls-1" d="M243.93,107.09c.18-.29-.56-.59-1.27-.66a21.24,21.24,0,0,0-2.35-.25c-1.43-.07-13.42-.4-15.33-.39-.95,0-1.83.28-2.72.28a23,23,0,0,0-4.86.49c-.32,0-.79.07-.9.22s.13.74.68.82c1.16.15,1.08,0,2.52.1.71,0,1.63-.22,2.53-.2s1.82.08,2.77.09c1.91,0,16.56.07,17.73-.06C243.18,107.48,243.81,107.3,243.93,107.09Z"/><path class="cls-1" d="M170.1,121.65c-.11.65.81,1.18,1.78,1.23a29.56,29.56,0,0,0,3.36.17,37.4,37.4,0,0,0,7.41-.4c1.34-.2,2.77.4,4,.29s2.37-.69,3.38-.8c2-.23,1.75,0,3.41-.31.33-.06,1.05-.27,1.12-.51s-.64-.86-1.12-.91c-1.67-.2-1.44.23-3.47.12-1-.06-2.18-.15-3.44-.18s-2.61.17-4,.16-2.69-.44-4-.4-2.43.31-3.44.37c-2,.11-1.75-.13-3.43.06C171,120.62,170.19,121.11,170.1,121.65Z"/><path class="cls-1" d="M153.46,130.83c-.13.57,1,1,2.16,1.09,2,.09,1.63.16,4.09.16,1.23,0,2.67.29,4.21.27s3.15-.57,4.78-.63,3.36.35,4.89.25,2.88-.6,4.11-.71c2.45-.2,2.11,0,4.13-.27.4-.05,1.27-.24,1.35-.45s-.77-.76-1.35-.81c-2-.18-1.75.2-4.21.11-1.23-.06-2.64-.14-4.18-.16s-3.17.14-4.81.14-3.26-.39-4.79-.36-3,.28-4.18.33c-2.46.1-2.18-.42-4.21-.25A2.5,2.5,0,0,0,153.46,130.83Z"/><path class="cls-1" d="M199.13,119.94c-2.44.23-2.82.63-2.8,1.48s1.3,1.32,2.28,1.27c2.32-.12,6.08-.45,9.78-.47,3.41,0,6.76.27,8.9.16.91,0,9.14-.35,9.14-1.14s-1.39-1.55-3.46-1.4c-4.26.32-14.27.11-18.84.25a8.55,8.55,0,0,1-1.13,0A23.22,23.22,0,0,0,199.13,119.94Z"/><path class="cls-1" d="M160.13,133.63c-1.83,0-3.66.51-3.62.92s2.45.64,4.28.62c8.39-.11,8.42.21,16.81.1,1.7,0,3.09-.6,3.08-1s-1.45-.52-3.18-.5c-8.39.07-8.4-.21-16.79-.14Z"/><path class="cls-1" d="M128.53,133.41c0,.33.65.78,1.36.75,2.74-.09,1.89,0,4.63-.13h.91c.75,0,1.36-.6,1.34-1s-.65-.44-1.41-.41c-2.74.13-2.75-.14-5.49,0C129.18,132.69,128.54,133.08,128.53,133.41Z"/><path class="cls-1" d="M185.34,114.84c-3.84,0-20.05.57-23.92.09-4.26-.52-15.27-1-19-1-4.14,0-8.46.57-12.33.56s-7.15-.14-10.25-.14c-6.2.07-3.41.26-8.57.45-1,0-2.7.25-2.74,1s1.39,1.48,2.46,1.52c5.16.17,2.65-.26,8.85-.19,3.1,0,6.72,1,10.6,1s8-.63,12.13-.65c3.86,0,7.72.43,11.37.41,4.17,0,8.07.06,11.37,0,6.2-.06,5.16-.28,10.33-.33l.45-.06h1.09c4.07,0,4.06-.56,8.14-.59.87,0,1.78-.47,1.79-1.16S186.23,114.85,185.34,114.84Z"/><path class="cls-1" d="M189.43,116.11c0,.72,1.5,1.49,3.24,1.49,8.22-.11,6.45-.43,14.67-.54,1.74,0,3.71-.4,3.71-1.13s-1.69-.81-3.43-.81c-8.22-.11-6.72-.54-14.94-.65C190.94,114.47,189.43,115.39,189.43,116.11Z"/><path class="cls-1" d="M218.89,115.13c-2.85.05-5.61.57-5.31,1.1s3.54.88,6.39.82c8.17-.16,8-.54,16.12-.7,1.59,0,3,.14,3.18-.17s-.91-.92-2.81-1c-8.17-.16-6.44.09-14.61-.07C221.5,115.14,219.25,115.12,218.89,115.13Z"/><path class="cls-1" d="M136.23,107.81c3.32-.13,6.45.34,9.11.24,5.3-.18,3.3-.16,7.71-.47.62,0,1.77-.43,1.85-.83s-.64-.59-1.39-.65c-4.41-.31-3.54,0-8.85-.21-2.66-.1-5.71-.7-9-.76a60.56,60.56,0,0,0-8.06.25C123.78,106.11,128.53,108.12,136.23,107.81Z"/><path class="cls-1" d="M122.2,106.75c-2.15-1.69-5.59-1.13-7.35-1.27-23.6-1.85-42.39,3-54.76,17.43,0,0,2.65,1.61,8.94-2.17,5.5-3.3,12.52-9.58,23.09-12a29.66,29.66,0,0,1,8-.69h.09c12.5.32,15.62,0,19.16,0C119.34,108,123.87,108.07,122.2,106.75Z"/><path class="cls-2" d="M141.48,87a7.82,7.82,0,0,1-.34-1,4.07,4.07,0,0,0-1.27-2.12,3.16,3.16,0,0,1-1.08-1.66l-1.93-7.09a5.37,5.37,0,0,0-9.14-2.22l-9.9,10.8a64,64,0,0,1-30.46,18.52h0a10.43,10.43,0,0,0,4.68.52,4.42,4.42,0,0,1,.86,0,29.17,29.17,0,0,0,3.67-.34,94.3,94.3,0,0,1,10-.73c3.72-.21,9.32-1,11.2-1.36a98.37,98.37,0,0,0,11-3,47.12,47.12,0,0,0,4.72-2,27.89,27.89,0,0,0,4.1-1.83,9.74,9.74,0,0,0,3.38-3.28,5,5,0,0,0,.56-1.38A4.27,4.27,0,0,0,141.48,87Z"/><path class="cls-2" d="M180.77,74l-3-7.87a7.24,7.24,0,0,0-11.71-2.74L144.23,83.72a2.9,2.9,0,0,1-1,.6,5.31,5.31,0,0,1,.72,3.34c-.21,2.72.42,6.7-7.67,10-7.56,3.06-12.42,4.85-13.35,5.07h24.55a23.79,23.79,0,0,0,8.54-1.61l.32-.12c1.07-.39,2.15-.75,3.23-1.11s2.11-.8,3.17-1.18a52,52,0,0,0,6-2.71,54,54,0,0,0,4.93-3.66c.39-.29.79-.55,1.17-.81l1.1-.84A13.4,13.4,0,0,0,178,89a27.28,27.28,0,0,0,3.8-4.64A17.92,17.92,0,0,0,184,79.74c.15-.74.39-1.64.58-2.34A5.57,5.57,0,0,1,180.77,74Z"/><path class="cls-2" d="M213.38,80.45,208.27,73a8.66,8.66,0,0,0-12.81-1.68l-5.77,5a5.48,5.48,0,0,1-2.85,1.27A20.88,20.88,0,0,1,184,86.93a26.76,26.76,0,0,1-9.41,8.93c-3.25,2-10.06,6-11.57,6.85h23.69a10.33,10.33,0,0,0,6.13-2l.37-.27c3.11-2.09,5.94-4,9-5.68,1.51-.88,3.4-1.84,4.84-2.59S210,91,211.27,90.41c2.58-1.13,3.69-1.53,4.69-1.88.83-.27,1.58-.54,3.06-1h0a6.68,6.68,0,0,0,1.74-.79A18.77,18.77,0,0,1,213.38,80.45Z"/><path class="cls-2" d="M224.1,88s-8,3-10.83,4.66-10.6,4.77-13.6,7.39a36.56,36.56,0,0,1-3.33,2.63h47.13a11.3,11.3,0,0,0-5-9.43,33.18,33.18,0,0,0-12.9-4.92c-.5-.09-1-.21-1.47-.34Z"/><text class="cls-3" transform="translate(153.77 185.54)">construction &amp; se<tspan class="cls-4" x="70.86" y="0">r</tspan><tspan x="74.03" y="0">vice</tspan></text><path class="cls-2" d="M64.75,174.38a3.35,3.35,0,0,0,2.34-.68l.2-.13c.59-.49,2-1.68,2-6.16,0-.62,0-1.21,0-1.77s0-1,0-1.39a.46.46,0,0,1,0-.2c-.11-2.31-.76-6.19-3.81-6.19S61,160,60.6,165.13c-.3,3.67.33,6.72,1.67,8.17A3.23,3.23,0,0,0,64.75,174.38Zm-1.5-10.08c0-.31,0-.58,0-.85.11-1.07.94-2.75,1.7-2.75,1.31,0,1.59,2.07,1.59,3.8,0,.48,0,1.23,0,2a13.64,13.64,0,0,1-.38,3.42c0,.07,0,.16-.07.26-.19.67-.48,1.68-1.12,1.68-1.14,0-1.76-1.31-1.84-3.9v0c0-.48,0-1.33,0-2.13C63.18,165.19,63.22,164.72,63.25,164.3Z"/><path class="cls-2" d="M77.84,161.1l.12.42.18,1,.69,2.7h0c.26,1.29.53,2.59.79,3.76v0l.88,4.1a1.08,1.08,0,0,0,1.15.84H82a1.1,1.1,0,0,0,1.17-.79c1.13-5.18,1.82-8.23,2.23-10.06.11-.49.21-.89.28-1.22.12-.57.21-.94.28-1.22l0-.12L86,160c0-.27.17-.92.17-1.1,0-.53-.2-.68-1.57-.68a.88.88,0,0,0-1,.59l-.6,3-1.28,6.48-.11-.68c-.49-3-.76-4.27-1-5.23,0-.22-.09-.42-.13-.62l-.08-.4,0,0c-.07-.41-.13-.75-.19-1v.07l-.25-1.18c-.17-.84-.37-1-1.11-1-1.37,0-1.66,0-1.66.56a7.48,7.48,0,0,0,.17.73s0,.06,0,.09l.13.45Z"/><path class="cls-2" d="M111.7,173.4V173c0-1.57-.19-1.57-.6-1.57h-2.38l-.57,0a8.53,8.53,0,0,1-.9,0h-.53v-.13c0-.27,0-.59,0-.89s0-.56,0-.78V167.8l0-.8c0-.87,0-1.72,0-2.63v-1.24l-.07-3.2c0-.39,0-.8,0-1.18s-.18-.43-.36-.43h-1.76c-.22,0-.38,0-.38.92s0,1.51,0,2.12l0,1.91V169c0,.56,0,1.22,0,1.85v.09c0,.06,0,.12,0,.18a.92.92,0,0,0,0,.16c0,.13,0,.25,0,.36s0,.19,0,.26,0,.11,0,.16a.71.71,0,0,0,0,.14c0,1.42.07,1.73.83,1.73l.45,0,.44,0H106l4.49,0a2.38,2.38,0,0,1,.43,0C111.57,173.83,111.7,173.81,111.7,173.4Z"/><path class="cls-2" d="M125.11,172.43l0,.34c.12.66.19,1.1,1.16,1.1.79,0,1.25,0,1.43-.22s.14-.34.09-.71c-.15-.69-.26-1.24-.36-1.78-.19-.94-.38-1.9-.81-3.69l-.08-.17-1.63-8a1.53,1.53,0,0,0-1.57-1c-.43,0-1,.12-1.23,1L120.62,167l0,0a.79.79,0,0,1,0,.13l-.65,2.67-.07.21a.56.56,0,0,0,0,.17l-.14.58c-.06.32-.1.57-.14.77s-.06.32-.08.45a5.7,5.7,0,0,0-.16,1.24c0,.62.14.7,1.27.7s1.36-.34,1.52-1.65c0-.1,0-.21.05-.33.06-.38.13-.86.27-1.45,0,0,0-.12,0-.2a1.09,1.09,0,0,1,0-.3l0-.07,2,0,0,.09.18.57.3,1.73a.6.6,0,0,1,0,.08h0Zm-2.29-5.05.76-3.93.59,3.85Z"/><path class="cls-2" d="M145.13,163.54V162c0-.35,0-.7,0-1s0-.69,0-1v-.61a1.83,1.83,0,0,0-.11-.91c-.1-.15-.34-.2-.84-.2H144a3.59,3.59,0,0,0-1.16.07c-.11,0-.16.12-.16.46,0,.14,0,.3,0,.44s0,.2,0,.27h0v0h0l0,1c-.06,1.86-.15,4.67-.15,6.44v.3l-.21-.22c-.67-.66-1.87-4-2.75-6.42-.32-.87-.59-1.63-.76-2s-.19-.32-.44-.32H137c-.45,0-.45.17-.45.22v1.81c.07.93.07,1.93.07,2.9s0,2,0,3c0,1.32,0,2.69,0,4v.52c0,.46,0,.89,0,1.4,0,.06,0,.1,0,.14a.13.13,0,0,0,0,.06.14.14,0,0,1,0,.09v.81c.06.56.1.56,1,.56h.63c.38,0,.66,0,.8-.13s.21-.47.19-1l-.05-4.73c0-.77,0-1.58,0-2.43l0-.94.26.69c1.06,2.82,1.93,4.87,2.63,6.53l.59,1.43a.84.84,0,0,0,.9.63h.68v0a.9.9,0,0,0,.22,0c.43,0,.56-.11.56-.83v-.76c0-.39,0-.69,0-1,0-.5,0-1.11,0-2.25l-.09-2.42a7.22,7.22,0,0,1,.07-1.51Z"/><path class="cls-2" d="M156.74,174.12h.34c4.1-.44,5.5-5.22,5.41-8.13v-.8c-.15-1.69-1.11-7.22-6.9-7.22-.84,0-1,0-1,1.27,0,1,0,1.81,0,2.12l.05.89c0,.24.05.47.05.72v.5a5.53,5.53,0,0,0,0,.6v1.85c0,.24,0,.48,0,.72s0,.48,0,.72l.07,2.81c0,.31,0,.64,0,1s0,.66,0,1v.34C154.92,174,155.61,174.12,156.74,174.12Zm.44-12.56.16,0c1.75.42,2.75,2.21,2.75,4.93,0,2.9-1.55,4.36-2.65,4.47h-.14v-.14c0-.13,0-.26,0-.38s0-.25,0-.37v-3c0-1.09,0-1.89-.05-2.67s0-1.59,0-2.71Z"/><path class="cls-2" d="M173.94,174.08c1.34,0,4.45-.36,4.45-3.72,0-2.19-1.92-4.13-3.46-5.69l-.19-.19a2.59,2.59,0,0,1-1-2.28c0-1.58,1.39-2.28,2.76-2.28a.61.61,0,0,0,.7-.6c-.07-.35-.16-.72-.25-1.07s-.22-.5-.48-.5c-1.68,0-5.59.41-5.59,4.26,0,2,1.32,3.36,2.6,4.67.34.35.69.72,1,1.08a3.65,3.65,0,0,1,1.1,2.53c0,1.05-.54,1.5-1.82,1.5a8.36,8.36,0,0,1-2.08-.3.75.75,0,0,0-.2,0c-.23,0-.32.29-.48.86-.05.18-.1.38-.18.59a.19.19,0,0,1,0,.08v0C170.77,173.76,173.07,174.08,173.94,174.08Z"/><path class="cls-2" d="M191.54,174.4c2.5,0,3.12-1.41,3.12-1.61a1.64,1.64,0,0,0-1.16-1.3,1.25,1.25,0,0,0-.57.21,2.25,2.25,0,0,1-1.12.34c-2.18,0-2.35-4.4-2.35-5.75,0-.4,0-.86.07-1.32l.13-1.54c.23-1.12.67-3.21,2.17-3.21a3.64,3.64,0,0,1,1.39.33,1.58,1.58,0,0,0,.46.15,1.41,1.41,0,0,0,1-1.25c0-.45-1.3-1.59-2.92-1.59-2.06,0-3.6,1.32-4.25,3.61l-.14.48c-.1.43-.2.93-.29,1.52h0a4.24,4.24,0,0,0-.1,1,7.77,7.77,0,0,0,0,.83h0c0,.06,0,.14,0,.22a4.61,4.61,0,0,0,0,.56c0,.12,0,.27,0,.44C186.94,168.8,187.06,174.06,191.54,174.4Z"/><path class="cls-2" d="M208.52,172.43l0,.34c.12.66.19,1.1,1.16,1.1.79,0,1.25,0,1.43-.22s.14-.34.09-.71c-.15-.69-.26-1.24-.36-1.78-.19-.94-.38-1.9-.81-3.69l-.08-.17-1.63-8a1.56,1.56,0,0,0-1.57-1c-.43,0-1,.12-1.23,1L204,167l0,0a.79.79,0,0,1-.05.13l-.65,2.67-.07.21a.56.56,0,0,0,0,.17l-.14.58c-.06.32-.1.56-.14.76s-.06.33-.09.46a6.39,6.39,0,0,0-.16,1.24c0,.62.15.7,1.28.7s1.36-.34,1.52-1.65c0-.1,0-.21.05-.32.06-.39.13-.87.27-1.46,0,0,0-.12,0-.2a.63.63,0,0,1,0-.3l0-.07,2,0,0,.09.18.57.3,1.73a.6.6,0,0,1,0,.08h0Zm-2.29-5.05.76-3.93.59,3.85Z"/><path class="cls-2" d="M220.56,173.9h1.34a.67.67,0,0,0,.47-.11.44.44,0,0,0,.1-.32c0-.56,0-1.22,0-1.88s0-1.3,0-1.85v-.12h.12a6.09,6.09,0,0,0,2.7-.6c1.43-.89,2.25-2.76,2.25-5.11,0-4-3.2-5.82-6.18-5.82-.92,0-1.36.37-1.36,1.13q0,3.43,0,6.87c0,2.3,0,4.6,0,6.9v.25C220,173.82,220.29,173.9,220.56,173.9Zm1.64-6.13c.05-2.42.07-4.7.09-6.9a.37.37,0,0,0,0-.11.49.49,0,0,1,0-.12,3,3,0,0,1,0-.42l0-.11h.12c.82.05,2.52,1.14,2.52,4.22,0,1.08-.26,3.58-2.65,3.58h-.12Z"/><path class="cls-2" d="M236.33,170.22c0,.32,0,.64,0,1v2.09a.6.6,0,0,0,.12.43c.16.16.51.15,1,.15h4.72a3.31,3.31,0,0,0,.44,0c.86,0,.88-.08.88-1.18v-.32c0-.7-.06-.81-.49-.81h-.73c-.35,0-.72,0-1.22,0l-2.05.08h-.13v-.13c0-.09,0-.18,0-.26a2.81,2.81,0,0,1,0-.29c0-.21,0-.42,0-.62s0-.3,0-.43c0-.68,0-1.34,0-2,0-.14,0-.28,0-.41s0-.26,0-.39V167H239c.62,0,2.11,0,2.68,0H242c.46,0,.68-.1.68-.72v-.09a2.36,2.36,0,0,0-.09-1c-.06-.11-.2-.14-.61-.14h-2.95s-.17,0-.17-.35v-1.1l0-3.09h.14c.27,0,.65,0,1.08,0h.4c1.54,0,2.48,0,2.77-.29a.41.41,0,0,0,.1-.27c0-.13,0-.26,0-.41s0-.52,0-1c0-.15,0-.31-.7-.31h-.41c-.55,0-1.42,0-1.84,0H240c-.52,0-1.29,0-1.83,0h-.11a5.49,5.49,0,0,0-1.3.08c-.32.08-.46.22-.46.48s0,.28,0,.43a2.73,2.73,0,0,1,0,.37v6.11c0,.1,0,.21,0,.33s0,.27,0,.4,0,.54,0,.83,0,.68,0,1.07v.52C236.35,169.35,236.34,169.77,236.33,170.22Z"/><circle class="cls-2" cx="95.15" cy="166.3" r="1.47"/></svg>