<svg id="Layer_1" data-name="Layer 1" xmlns="http://www.w3.org/2000/svg" viewBox="0 0 304.05 261.42"><defs><style>.cls-1,.cls-4,.cls-7{fill:#4bb6b8;}.cls-2{fill:#06abb9;}.cls-3{fill:#167d92;}.cls-4{font-size:22.88px;font-family:LimesSans-Bold, Limes Sans;font-weight:700;letter-spacing:0.3em;}.cls-5{letter-spacing:0.25em;}.cls-6{letter-spacing:0.3em;}.cls-7{font-size:9.14px;font-family:Roboto-Regular, Roboto;}.cls-8{letter-spacing:0.01em;}</style></defs><title>8</title><path class="cls-1" d="M114.07,110c4.23.06,4.22.22,8.45.28s4.24-.06,8.47,0,4.24-.15,8.47-.09,4.24-.13,8.47-.07,4.33.25,8.56.31,4.25-.14,8.48-.08c.89,0,1.94.32,1.92.76s-1.07.84-1.91.86c-4.23.06-4.21.26-8.44.32s-4.23.08-8.46.14-4.24-.14-8.48-.07l-8.45.11c-4.23.07-4.23.16-8.46.22s-4.23.27-8.46.33-3.66-.63-7.9-.57c-1.82,0-3.76-.63-3.7-1.32C102.77,109.48,109.84,109.94,114.07,110Z"/><path class="cls-1" d="M196.69,110.8c0-.47-1.61-1-2.55-1-5.64,0-5.63-.23-11.28-.28s-12,.4-12.89,1.29c-.42.39.45,1.36,1.61,1.35,5.64,0,5.63-.29,11.27-.34s5.64-.34,11.28-.39C195,111.4,196.67,111.25,196.69,110.8Z"/><path class="cls-1" d="M228.13,109.78c-4.62,0-4.62-.23-9.24-.28-3.87,0-4.52,0-7.33,0-.66,0-1.43,0-2.44,0-4.52,0-7.93.26-8,.26-1.47,0-2.42.46-2.4,1a1.3,1.3,0,0,0,1.32,1.35c4.38,0,9.15,0,9.55,0,4.62,0,4.62-.29,9.24-.34s4.61-.34,9.24-.39c.75,0,2.08-.16,2.09-.61S228.9,109.79,228.13,109.78Z"/><path class="cls-1" d="M189.76,109.78c0,1.15-9.28.88-9.24-.28"/><path class="cls-1" d="M233.27,109.73c-1,.09-1.4.65-1.37,1.08s.91,1.09,1.62,1.08c3.87-.09,3.86-.22,7.73-.31a.93.93,0,0,0,.89-.78c0-.34-.44-.76-1.31-.73-3.86.17-1.55-.2-5.42-.28A18.45,18.45,0,0,0,233.27,109.73Z"/><path class="cls-1" d="M194.63,129.37c-1.31,0-2.75.82-2.7,1.25s1.66,1.09,3,1.07c7.11-.08,7.09-.22,14.2-.31,1,0,1.6-.46,1.63-.78s-.66-.35-1.68-.36c-7.11-.09-6.16-.77-13.27-.86Z"/><path class="cls-1" d="M208.82,133.82c0-.43-2.81-.93-4.37-.93-3.68,0-3.68-.18-7.37-.18-1.55,0-3.51.68-3.51,1.11s2,.74,3.51.74c3.69,0,3.69-.23,7.37-.23C206,134.33,208.82,134.25,208.82,133.82Z"/><path class="cls-1" d="M178.48,140.63c0-.29-.86-.63-1.37-.64-3,0-3-.14-6-.17s-1.45,0-4.44,0c0,0-3,0-2.86.82a1.45,1.45,0,0,0,1.33.83c3,0,3-.18,6-.21s3-.22,6-.25C177.59,141,178.48,140.92,178.48,140.63Z"/><path class="cls-1" d="M170.41,126.61c0-.46-1.31-1-2.08-1-4.63,0-2-.23-6.6-.28s-3.75.44-8.37.4c0,0-4.75-.38-5.34.77-.27.51.35,1.26,2,1.25,4.63,0,4.47-.07,9.09-.12s4.61-.34,9.24-.39C169.07,127.21,170.4,127.07,170.41,126.61Z"/><path class="cls-1" d="M214.44,126.61c0-.46-1.32-1-2.09-1-4.62,0-7.81-.22-12.43-.27s-8.32.23-8.34.23c-1.62-.1-2.24.48-2.23,1s1.62,1,2.57,1c4.63,0,3.37.11,8,.06s7.81-.34,12.43-.39C213.09,127.21,214.42,127.07,214.44,126.61Z"/><path class="cls-1" d="M123.7,124.81c-1.21,0-2.56,1-2.52,1.5s1.55,1.32,2.77,1.3c6.62-.1,6.61-.27,13.23-.37a1.5,1.5,0,0,0,1.52-.95c0-.4-.62-.42-1.57-.43-6.62-.11-5.73-.93-12.36-1Z"/><path class="cls-1" d="M168.43,137.51c0-.43-1.3-.93-2-.93-2.9,0-2.9-.18-5.81-.18-.71,0-1.62.68-1.62,1.11s.91.74,1.62.74c2.91,0,2.91-.23,5.81-.23C167.13,138,168.43,137.94,168.43,137.51Z"/><path class="cls-1" d="M179.35,137.51c0-.43-1.29-.93-2-.93-2.91,0-2.91-.18-5.81-.18-.71,0-1.62.68-1.62,1.11s.91.74,1.62.74c2.9,0,2.9-.23,5.81-.23C178.06,138,179.35,137.94,179.35,137.51Z"/><path class="cls-1" d="M205,136.59c0-.43-1-.94-1.47-.94-2.12,0-2.12-.17-4.23-.17a1.43,1.43,0,0,0-1.18,1.11c0,.43.66.73,1.18.73,2.11,0,2.11-.22,4.23-.22C204.07,137.1,205,137,205,136.59Z"/><path class="cls-2" d="M174.64,143.64c0-.43-.95-.93-1.47-.93-2.12,0-2.12-.18-4.23-.18a1.43,1.43,0,0,0-1.18,1.11c0,.43.66.74,1.18.74,2.11,0,2.11-.22,4.23-.22C173.69,144.16,174.64,144.07,174.64,143.64Z"/><path class="cls-1" d="M138.09,130.33c0-.43-2.4-.93-3.72-.93-3.15,0-3.15-.18-6.29-.18-1.33,0-3,.68-3,1.11s1.68.73,3,.73c3.14,0,3.14-.22,6.29-.22C135.69,130.84,138.09,130.76,138.09,130.33Z"/><path class="cls-1" d="M186.71,126.82c0-.43-2.4-.94-3.72-.94-3.15,0-3.15-.17-6.29-.17-1.33,0-3,.68-3,1.11s1.68.73,3,.73c3.14,0,3.14-.22,6.29-.22C184.31,127.33,186.71,127.24,186.71,126.82Z"/><path class="cls-1" d="M157.79,106.65c-.15.39,1.06.73,2.28.78,4.07.17,3.25.2,8.16.29,1.23,0,2.54.3,3.94.32s2.93-.35,4.46-.35c3.07,0,6.34.43,9.61.43,1.64,0,3.27-.36,4.88-.36s3.21.08,4.74.06c3.07,0,6,.07,8.44,0,4.91-.12,4.12-.19,8.18-.39.73,0,.8-.37.91-.61s-.08-.44-1-.49c-4.07-.2-3.28,0-8.19-.14-2.45-.06-5.24-.46-8.31-.49-1.53,0-3.13.11-4.74.11s-3.24-.43-4.88-.42c-3.27,0-6.53.51-9.6.54-1.53,0-3-.1-4.43-.08s-2.8-.34-4-.32c-4.91.09-4,.51-8.07.68C159.14,106.25,157.92,106.32,157.79,106.65Z"/><path class="cls-1" d="M116.83,121.42c-.14.62,1,1.15,2.07,1.23,3.72.27,3-.1,7.44.46a53.39,53.39,0,0,0,7.66,0c2.8,0,5.78.68,8.76.68,1.49,0,3-.56,4.45-.57s2.92.12,4.32.09c2.8-.05,5.45.11,7.69,0,4.48-.19,2.46-.18,6.17-.5.66-.06,2.17-.56,2.27-1s-.8-.8-1.66-.88c-3.71-.32-2.42,0-6.89-.16-2.24-.11-4.78-.73-7.58-.79-1.4,0-2.86.27-4.32.18a101.46,101.46,0,0,0-13.2.19c-1.4,0-2.76-.15-4-.13s-2.55-.53-3.67-.5c-4.47.14-3.64.81-7.35,1.07C118.05,120.78,117,120.9,116.83,121.42Z"/><path class="cls-2" d="M243.77,107.1c.17-.3-.57-.59-1.27-.67a21.69,21.69,0,0,0-2.36-.24c-1.43-.08-13.42-.41-15.33-.39-.95,0-1.83.27-2.72.27a23.13,23.13,0,0,0-4.86.49c-.31,0-.79.08-.9.22s.13.75.68.82c1.17.15,1.09,0,2.52.1.71,0,1.64-.22,2.53-.2s1.82.08,2.78.09c1.9,0,16.55.07,17.72-.06A2.18,2.18,0,0,0,243.77,107.1Z"/><path class="cls-1" d="M169.93,121.65c-.11.65.82,1.18,1.78,1.23a31.87,31.87,0,0,0,3.37.18,38.65,38.65,0,0,0,7.41-.41c1.33-.2,2.76.4,4,.29s2.37-.69,3.38-.8c2-.23,1.74,0,3.41-.31.32-.06,1-.27,1.11-.5s-.63-.87-1.12-.92c-1.67-.2-1.44.23-3.47.12-1-.06-2.17-.15-3.44-.18s-2.61.17-4,.17-2.69-.45-4-.41-2.44.31-3.45.37c-2,.11-1.75-.13-3.43.06C170.83,120.63,170,121.11,169.93,121.65Z"/><path class="cls-1" d="M153.3,130.83c-.14.58,1,1,2.16,1.1,2,.08,1.62.15,4.08.15,1.23,0,2.67.3,4.21.27s3.15-.57,4.78-.63,3.36.35,4.89.25,2.88-.6,4.11-.71c2.45-.19,2.12,0,4.14-.27.39-.05,1.26-.24,1.35-.45s-.77-.76-1.36-.81c-2-.18-1.75.2-4.21.11-1.23-.06-2.64-.14-4.18-.16s-3.17.15-4.81.15-3.26-.4-4.79-.36-2.95.27-4.18.32c-2.45.1-2.18-.42-4.21-.25A2.46,2.46,0,0,0,153.3,130.83Z"/><path class="cls-1" d="M199,120c-2.43.22-2.82.63-2.8,1.47s1.3,1.32,2.28,1.27c2.32-.12,6.09-.45,9.79-.47,3.4,0,6.75.27,8.89.16.91,0,9.14-.35,9.14-1.14s-1.38-1.55-3.45-1.4c-4.27.32-14.28.11-18.84.25a8.63,8.63,0,0,1-1.14,0A21.24,21.24,0,0,0,199,120Z"/><path class="cls-1" d="M160,133.63c-1.84,0-3.67.51-3.63.92s2.45.64,4.28.62c8.39-.11,8.42.21,16.81.1,1.71,0,3.09-.6,3.09-1s-1.45-.52-3.19-.5c-8.39.07-8.39-.21-16.78-.14Z"/><path class="cls-1" d="M128.36,133.41c0,.34.65.78,1.36.76,2.74-.1,1.89,0,4.63-.13h.91c.76,0,1.36-.61,1.35-1s-.66-.44-1.41-.41c-2.74.13-2.76-.14-5.5,0C129,132.69,128.37,133.08,128.36,133.41Z"/><path class="cls-1" d="M185.17,114.84c-3.84,0-20,.57-23.92.09-4.25-.52-15.26-1-19-1-4.13,0-8.45.57-12.33.56s-7.15-.14-10.25-.13c-6.2.07-3.41.26-8.57.44-1,0-2.7.25-2.74,1s1.39,1.48,2.46,1.52c5.16.18,2.66-.26,8.86-.19,3.1,0,6.71,1,10.59,1s8-.63,12.13-.64c3.86,0,7.73.42,11.38.4,4.16,0,8.06.06,11.36,0,6.2-.07,5.17-.29,10.33-.34a2.48,2.48,0,0,0,.45,0H177c4.07,0,4.07-.56,8.14-.59.88,0,1.79-.47,1.79-1.16S186.06,114.85,185.17,114.84Z"/><path class="cls-1" d="M189.26,116.11c0,.73,1.5,1.49,3.24,1.49,8.22-.11,6.45-.43,14.67-.54,1.74,0,3.71-.4,3.71-1.12s-1.69-.81-3.43-.81c-8.22-.12-6.72-.55-14.94-.66C190.77,114.47,189.26,115.39,189.26,116.11Z"/><path class="cls-1" d="M218.72,115.13c-2.85.05-5.61.57-5.31,1.1s3.55.88,6.4.82c8.16-.16,7.95-.54,16.12-.7,1.58,0,3,.14,3.18-.17s-.92-.92-2.82-1c-8.16-.16-6.44.09-14.61-.07C221.34,115.14,219.08,115.12,218.72,115.13Z"/><path class="cls-1" d="M136.06,107.81c3.32-.13,6.45.35,9.11.25,5.31-.19,3.3-.17,7.71-.48.62,0,1.78-.43,1.85-.83s-.64-.59-1.39-.65c-4.41-.31-3.54,0-8.85-.21-2.65-.1-5.71-.7-9-.76a60.64,60.64,0,0,0-8.06.26C123.61,106.11,128.36,108.12,136.06,107.81Z"/><path class="cls-1" d="M122,106.75c-2.15-1.69-5.59-1.13-7.35-1.26-23.6-1.86-42.39,3-54.76,17.42,0,0,2.65,1.61,8.94-2.16,5.5-3.31,12.52-9.58,23.09-12.06a30.07,30.07,0,0,1,8-.69H100c12.51.32,15.62,0,19.16,0C119.17,108,123.71,108.07,122,106.75Z"/><path class="cls-3" d="M141.31,87c-.14-.37-.25-.72-.34-1a4.07,4.07,0,0,0-1.27-2.12,3.16,3.16,0,0,1-1.08-1.66l-1.92-7.09a5.38,5.38,0,0,0-9.15-2.22l-9.9,10.8a63.91,63.91,0,0,1-30.46,18.52h0s1.37.68,4.69.52a4.34,4.34,0,0,1,.85,0,29.17,29.17,0,0,0,3.67-.34,94.5,94.5,0,0,1,10-.73c3.71-.21,9.31-1,11.19-1.36a98.37,98.37,0,0,0,11-3,47.33,47.33,0,0,0,4.73-2,27.75,27.75,0,0,0,4.09-1.83,9.74,9.74,0,0,0,3.38-3.28,5.3,5.3,0,0,0,.57-1.38A4.47,4.47,0,0,0,141.31,87Z"/><path class="cls-3" d="M180.6,74l-3-7.88a7.24,7.24,0,0,0-11.7-2.74L144.06,83.72a3.11,3.11,0,0,1-1,.61,5.27,5.27,0,0,1,.72,3.34c-.21,2.72.42,6.69-7.67,10-7.56,3.06-12.42,4.85-13.34,5.07h24.54a24,24,0,0,0,8.54-1.6l.32-.12c1.07-.39,2.15-.76,3.23-1.12s2.11-.8,3.17-1.18a51.29,51.29,0,0,0,6-2.71,52.16,52.16,0,0,0,4.93-3.66c.39-.29.79-.55,1.18-.81l1.09-.83a13.45,13.45,0,0,0,2-1.68,27.28,27.28,0,0,0,3.8-4.64,17.32,17.32,0,0,0,2.19-4.61c.15-.75.39-1.65.58-2.35A5.58,5.58,0,0,1,180.6,74Z"/><path class="cls-3" d="M213.21,80.45l-5.1-7.5a8.67,8.67,0,0,0-12.82-1.68l-5.76,5a5.47,5.47,0,0,1-2.86,1.27,20.84,20.84,0,0,1-2.83,9.42,26.77,26.77,0,0,1-9.42,8.93c-3.25,2-10.06,6-11.57,6.85h23.7a10.32,10.32,0,0,0,6.12-2c.12-.09.24-.18.37-.26,3.11-2.1,6-4,9-5.69,1.52-.88,3.4-1.84,4.84-2.58s2.92-1.17,4.21-1.74c2.58-1.14,3.7-1.54,4.69-1.89.83-.26,1.58-.53,3.06-1h0a6.68,6.68,0,0,0,1.74-.79A18.84,18.84,0,0,1,213.21,80.45Z"/><path class="cls-3" d="M223.93,88s-8,3-10.83,4.66-10.6,4.77-13.6,7.39a36.56,36.56,0,0,1-3.33,2.63H243.3a11.29,11.29,0,0,0-5-9.42,33.06,33.06,0,0,0-12.9-4.93q-.75-.14-1.47-.33Z"/><text class="cls-4" transform="translate(59.49 174.03)">O<tspan class="cls-5" x="17.73" y="0">V</tspan><tspan class="cls-6" x="32.58" y="0" xml:space="preserve"> LANDSCAPE</tspan></text><text class="cls-7" transform="translate(153.77 185.54)">construction &amp; se<tspan class="cls-8" x="70.86" y="0">r</tspan><tspan x="74.03" y="0">vice</tspan></text></svg>